<?xml version="1.0" encoding="UTF-8" standalone="no"?>
<!-- Creator: CorelDRAW -->

<svg
   xmlns:dc="http://purl.org/dc/elements/1.1/"
   xmlns:cc="http://creativecommons.org/ns#"
   xmlns:rdf="http://www.w3.org/1999/02/22-rdf-syntax-ns#"
   xmlns:svg="http://www.w3.org/2000/svg"
   xmlns="http://www.w3.org/2000/svg"
   xmlns:sodipodi="http://sodipodi.sourceforge.net/DTD/sodipodi-0.dtd"
   xmlns:inkscape="http://www.inkscape.org/namespaces/inkscape"
   xml:space="preserve"
   width="100.09053mm"
   height="68.934891mm"
   style="clip-rule:evenodd;fill-rule:evenodd;image-rendering:optimizeQuality;shape-rendering:geometricPrecision;text-rendering:geometricPrecision"
   viewBox="0 0 14.416433 9.9289437"
   version="1.1"
   id="svg5136"
   sodipodi:docname="defaultAgenda.svg"
   inkscape:version="0.92.4 (5da689c313, 2019-01-14)"><metadata
     id="metadata5140"><rdf:RDF><cc:Work
         rdf:about=""><dc:format>image/svg+xml</dc:format><dc:type
           rdf:resource="http://purl.org/dc/dcmitype/StillImage" /><dc:title></dc:title></cc:Work></rdf:RDF></metadata><sodipodi:namedview
     pagecolor="#ffffff"
     bordercolor="#666666"
     borderopacity="1"
     objecttolerance="10"
     gridtolerance="10"
     guidetolerance="10"
     inkscape:pageopacity="0"
     inkscape:pageshadow="2"
     inkscape:window-width="1366"
     inkscape:window-height="705"
     id="namedview5138"
     showgrid="false"
     inkscape:zoom="1.0785237"
     inkscape:cx="127.46141"
     inkscape:cy="110.77832"
     inkscape:window-x="-8"
     inkscape:window-y="-8"
     inkscape:window-maximized="1"
     inkscape:current-layer="svg5136"
     fit-margin-top="0"
     fit-margin-left="0"
     fit-margin-right="0"
     fit-margin-bottom="0" /><defs
     id="defs5125"><style
       type="text/css"
       id="style5123"><![CDATA[
    .fil1 {fill:white}
    .fil0 {fill:#2d3e50}
   ]]></style></defs><g
     id="Capa_x0020_1"
     transform="translate(2.6500802,-2.1907254)"><metadata
       id="CorelCorpID_0Corel-Layer" /><rect
       style="opacity:0.769;fill:#7a061e;fill-opacity:1;stroke:none;stroke-width:1.38872826;stroke-linejoin:round;stroke-miterlimit:4;stroke-dasharray:none;stroke-opacity:1"
       id="rect824"
       width="14.416433"
       height="9.9289637"
       x="-2.6500802"
       y="2.1907153" /><g
       id="g830"
       transform="matrix(0.88396075,0,0,0.88396075,0.69144755,0.83556599)"><path
         style="fill:#ffffff"
         inkscape:connector-curvature="0"
         id="path5130"
         d="m 6.1144636,5.5611921 0.030103,-0.085527 0.00383,-0.010889 0.011076,-0.00277 c 5.76e-5,0 0.02391,-0.00622 0.031788,-0.00824 0.00313,-8.066e-4 0.020194,-0.00926 0.031068,-0.014763 l 0.00985,-0.046019 7.2e-5,-4.321e-4 0.066256,-0.281543 0.00337,-0.014288 0.013885,-0.00209 0.014951,-0.00223 0.00217,-0.00755 0.00472,-0.016348 0.01629,9.074e-4 0.018465,0.00102 0.00801,-0.079593 0.00228,-0.022657 0.021576,0.00349 0.038097,0.00616 c -0.00452,-0.059155 -0.013698,-0.195324 -0.00471,-0.221539 h 4.32e-5 v -1.44e-5 l 0.019632,0.0072 -0.019545,-0.00729 c 0.00291,-0.00848 0.0055,-0.01508 0.00812,-0.021764 0.00759,-0.01943 0.015642,-0.040041 0.014562,-0.041712 -0.00118,-0.00143 -0.00697,-0.00259 -0.014562,-0.0035 -0.011451,-0.00137 -0.02522,-8.642e-4 -0.037262,7.2e-5 -0.018969,0.00153 -0.03019,-6.77e-4 -0.045486,-0.00369 -0.00759,-0.00147 -0.01642,-0.00324 -0.028663,-0.00471 l -2.881e-4,-7.2e-5 c -0.00422,-4.753e-4 -0.00809,-6.914e-4 -0.011595,-6.914e-4 -0.00344,1.44e-5 -0.00719,3.025e-4 -0.011062,7.778e-4 -0.017788,0.00217 -0.0315,0.00844 -0.037723,0.013827 v 0 l -0.00406,0.00356 1.44e-5,4.32e-5 c -0.017457,0.015426 -0.058377,0.051535 -0.089575,0.051535 -0.025782,0 -0.037449,-0.010875 -0.047718,-0.020467 -0.00223,-0.0021 -0.00436,-0.00408 -0.00566,-0.00474 l -7.2e-5,-7.21e-5 c -0.013136,-0.00686 -0.0175,-0.019733 -0.018508,-0.031241 -0.039408,-0.00902 -0.130495,-0.032048 -0.138244,-0.053581 l -4.32e-5,-8.64e-5 h -1.44e-5 v -5.76e-5 l 1.44e-5,5.76e-5 h -1.44e-5 c -5.761e-4,-0.00156 -0.00153,-0.00362 -0.00274,-0.00599 -0.00137,-0.00265 -0.00314,-0.0058 -0.00527,-0.00929 -0.00766,-0.012646 -0.011667,-0.030204 -0.014058,-0.030045 -0.00272,9.794e-4 -0.011235,0.00674 -0.020093,0.012747 -0.017673,0.011912 -0.036397,0.024601 -0.049821,0.021115 l 2.88e-5,-5.76e-5 -5.041e-4,-5.76e-5 c -0.00333,-9.218e-4 -0.0073,-0.00279 -0.012401,-0.0052 -0.011134,-0.00524 -0.031803,-0.014965 -0.032696,-0.013885 l -4.32e-5,-4.32e-5 -5.76e-5,1.008e-4 -1.873e-4,2.448e-4 c -0.014979,0.017385 -0.048856,0.021519 -0.072132,0.024385 -0.00704,8.642e-4 -0.011364,9.074e-4 -0.012243,0.00122 v 0 c -0.00272,0.00141 -0.00854,0.144452 -0.00858,0.144898 l -0.00226,0.029354 -0.026142,-0.010875 -0.199257,-0.082747 -0.00338,0.00468 -0.00766,0.01063 0.00177,0.057095 4.609e-4,0.014994 -0.013496,0.00578 c 0,0 -0.01171,-0.00544 -0.00949,-0.00115 0.00997,0.0193 0.00124,0.037247 -0.00614,0.052428 -0.00179,0.00369 -0.00338,0.00457 -0.00338,0.00579 0,0.010702 0,0.029988 -0.00217,0.05034 -2.305e-4,0.00216 -3.457e-4,0.00508 -3.457e-4,0.0085 h -8.64e-5 c 0,0.00681 6.049e-4,0.01449 0.00174,0.021072 0.018047,-0.00114 0.048741,-0.0035 0.048827,-0.0035 l 0.00602,-4.466e-4 0.00539,0.00307 0.12446,0.070908 0.015873,0.00905 -0.00616,0.017241 c -5.76e-5,1.872e-4 -0.020827,0.058507 -0.02643,0.067293 l 5.77e-5,4.32e-5 c -0.00143,0.00222 -0.00288,0.00396 -0.00432,0.00537 9.075e-4,0.00225 0.00194,0.00472 0.00307,0.0074 v 8.64e-5 c 0.00966,0.023247 0.023564,0.056663 0.012056,0.077591 -0.00889,0.016146 -0.035706,0.052558 -0.035792,0.052659 l -2.449e-4,2.449e-4 c -1.728e-4,2.449e-4 -0.065795,0.085657 -0.080933,0.096172 l -7.2e-5,8.64e-5 c -0.00359,0.00248 -0.00582,0.0047 -0.00729,0.007 -0.00174,0.00268 -0.0031,0.00637 -0.00459,0.010947 l -2.88e-5,-1.44e-5 c -4.897e-4,0.00164 -8.498e-4,0.00416 -0.0012,0.00658 -0.0017,0.011796 -0.00323,0.022325 -0.019013,0.036383 -0.00278,0.00249 -0.0057,0.0055 -0.00854,0.00871 0.010385,0.00362 0.01979,0.00674 0.020554,0.00645 l 1.584e-4,-7.2e-5 c 0.0029,-9.795e-4 0.00593,-0.00137 0.00902,-0.00108 h 8.65e-5 v 0 c 0.00736,6.77e-4 0.022527,0.00884 0.035634,0.02005 0.012488,0.010687 0.025091,0.025047 0.030132,0.039494 0.00206,0.00591 0.003,0.012027 0.00248,0.01822 h 8.65e-5 l -8.65e-5,8.64e-5 v -8.64e-5 h 8.65e-5 l -4.32e-5,4.033e-4 -8.65e-5,8.64e-5 c -5.905e-4,0.00664 -0.00147,0.013669 -0.00233,0.020741 -0.002,0.016031 -0.00402,0.032436 -0.00264,0.036772 l 1.728e-4,3.457e-4 1.44e-5,1.152e-4 -7.2e-5,2.88e-5 c 0.00174,0.00557 0.00467,0.016679 0.00824,0.03055 0.00811,0.031313 0.020093,0.077534 0.02077,0.079449 l 5.76e-5,-5.76e-5 2.89e-5,5.76e-5 v 8.65e-5 c 0.00187,0.00196 0.00406,0.00493 0.00627,0.00848 0.0017,0.00274 0.00366,0.00616 0.00562,0.00998 0.011739,0.022628 0.024241,0.06071 0.00814,0.078268 -0.00334,0.00364 0.00939,0.037751 0.021548,0.067797 0.00857,-0.020093 0.018191,-0.039926 0.024428,-0.04429 l 1.008e-4,-7.2e-5 c 0.017039,-0.011753 0.072175,0.017126 0.072334,0.017212 l 0.013827,0.00661 -0.00179,0.015527 c 0,1.008e-4 -0.00468,0.040603 -0.0014,0.043441 l 1.009e-4,8.64e-5 c 0.00644,0.0056 0.014303,0.014576 0.022023,0.023348 0.00759,0.00861 0.014994,0.017025 0.015988,0.017543 v 1.44e-5 l 4.609e-4,2.881e-4 c 0.00713,0.00386 0.011696,0.010788 0.017054,0.018811 0.00122,0.00183 0.00248,0.00377 0.00377,0.00566 9.218e-4,-0.00308 0.00189,-0.00663 0.00287,-0.010212 0.00618,-0.022858 0.012747,-0.047099 0.038774,-0.055453 h -1.44e-5 l 3.745e-4,-1.441e-4 -1.44e-5,-1.44e-5 c 0.013366,-0.00442 0.030708,-0.020496 0.041914,-0.030895 0.00782,-0.00727 0.01364,-0.012646 0.019747,-0.014706 v 2.89e-5 c 0.011119,-0.0033 0.082618,0.029815 0.118814,0.047128 0.00157,-0.00543 0.00298,-0.010846 0.00354,-0.014951 v -1.585e-4 c 0.00249,-0.017759 0.00583,-0.028029 0.024111,-0.030391 0.00897,-0.00117 0.019257,0.00277 0.036225,0.012272 0.00261,-0.0058 0.00364,-0.014807 0.00364,-0.02257 v -3.601e-4 h 8.65e-5 c 1.44e-5,-0.004 2.16e-4,-0.00801 5.761e-4,-0.011955 3.601e-4,-0.00387 8.93e-4,-0.00789 0.00158,-0.011854 0.00428,-0.024832 0.016305,-0.04792 0.03271,-0.05129 v 4.32e-5 l 0.00108,-2.736e-4 c -0.010932,-0.025451 -0.027698,-0.068819 -0.020467,-0.08014 v -7.2e-5 l 1.44e-5,-7.21e-5 8.64e-5,4.33e-5 c 0.00135,-0.00243 -0.00225,9.362e-4 -0.00226,-0.00184 -2.449e-4,-0.0192 -5.473e-4,-0.043469 0.023866,-0.050729 v -2.88e-5 c 1.152e-4,-4.32e-5 1.152e-4,-1.728e-4 1.584e-4,-4.321e-4 -0.044363,-0.012228 -0.034568,-0.047099 -0.034554,-0.0472 z m 1.00033,-1.26288 -0.115587,0.160742 -0.00745,0.010356 -0.012157,-0.00187 c -8.354e-4,-1.297e-4 -0.295342,-0.045414 -0.356052,-0.0034 -0.030694,0.021245 -0.060278,0.031039 -0.087285,0.039955 -0.031716,0.010486 -0.059227,0.019574 -0.074754,0.046465 l -4.32e-5,-4.33e-5 c -0.012862,0.022368 -0.016161,0.059803 -0.0158,0.095106 0.00166,1.297e-4 0.0033,3.169e-4 0.00494,5.186e-4 0.018364,0.00217 0.034568,0.0083 0.043614,0.02136 l 8.64e-5,1.008e-4 c 0.014403,0.021058 0.00193,0.05299 -0.00985,0.083122 -0.00302,0.00771 -0.00596,0.015282 -0.0076,0.019963 l 5.76e-5,1.44e-5 -2.88e-5,1.008e-4 -4.32e-5,-1.44e-5 7.2e-5,-8.64e-5 -5.76e-5,-1.44e-5 -1.44e-5,1.008e-4 -9.218e-4,-3.457e-4 9.218e-4,3.457e-4 v 0 0 0 l -9.218e-4,-3.457e-4 -0.018667,-0.00686 0.019632,0.0073 c -0.00848,0.024745 0.00916,0.230094 0.0092,0.230699 l 0.00236,0.02751 -0.026315,-0.00429 -0.042677,-0.0069 -0.00776,0.077447 -0.00206,0.02051 -0.019689,-0.00108 -0.021864,-0.0012 -0.00128,0.00448 -0.00385,0.013309 -0.013179,0.00197 -0.014231,0.00213 -0.062885,0.267241 h -2.88e-5 l -0.011912,0.055871 -0.00223,0.010356 -0.00916,0.00458 c -1.152e-4,5.76e-5 -0.0367,0.019358 -0.048122,0.022311 -0.00449,0.00114 -0.013842,0.00359 -0.021346,0.00555 l -0.025134,0.071455 c 9.506e-4,-0.00209 0.00292,-0.00519 0.00599,-0.00445 0.011321,0.00271 0.019185,0.00851 0.02427,0.015973 0.00517,0.0076 0.00701,0.016204 0.00645,0.024759 -4.753e-4,0.00712 -0.00272,0.014187 -0.00603,0.020381 h -5.76e-5 c -0.0057,0.010615 -0.015354,0.01956 -0.025552,0.022585 h -8.64e-5 c -0.00619,0.00181 0.00628,0.00395 0.00635,0.00853 1.152e-4,0.00982 1.872e-4,0.018307 -0.00451,0.025969 l -1.584e-4,4.177e-4 -1.44e-5,5.77e-5 -4.33e-5,-1.44e-5 c -0.00206,0.00419 0.031227,0.055021 0.031284,0.055194 l 0.00831,0.017054 -0.014735,0.010514 c -5.76e-5,2.88e-5 -0.017442,0.013035 -0.03199,0.016132 l -1.584e-4,5.76e-5 c -0.00205,4.177e-4 0.00176,0.00723 1.872e-4,0.016377 -4.609e-4,0.00265 -8.498e-4,0.00546 -0.00108,0.00825 -2.593e-4,0.00278 -4.321e-4,0.00544 -4.321e-4,0.00789 h 1.008e-4 v 3.601e-4 c 0,0.014447 -0.00278,0.032624 -0.010082,0.045731 -0.00315,0.0057 -0.00727,0.010673 -0.012444,0.014447 -0.00601,0.00436 -0.012862,0.00687 -0.020712,0.00687 -0.00665,0 -0.013842,-0.0019 -0.021519,-0.00619 h -1.008e-4 l -0.00229,-0.0013 c -0.00399,0.015873 -0.010601,0.033632 -0.010615,0.03369 l -0.00517,0.013395 0.017918,0.196217 H 6.0462764 L 6.0275664,5.913945 C 5.9967144,5.897813 5.9393744,5.868099 5.9377754,5.868661 l -1.44e-4,5.76e-5 c -0.00223,7.634e-4 -7.922e-4,0.00209 -0.00491,0.00591 -0.013827,0.012833 -0.035216,0.032681 -0.057066,0.039897 h -5.76e-5 l -4.609e-4,1.44e-4 h -8.64e-5 c -0.00439,0.0014 -0.00781,0.013942 -0.011004,0.025768 -0.00416,0.015426 -0.00818,0.030218 -0.019272,0.040517 l -7.21e-5,7.21e-5 -1.44e-4,1.44e-4 h -1.008e-4 c -0.018523,0.016895 -0.034525,0.00939 -0.04828,-0.0057 -0.00501,-0.00552 -0.00928,-0.011897 -0.01305,-0.017587 -0.00207,-0.0031 -2.305e-4,-0.00383 -0.00167,-0.00484 l -2.88e-5,-1.44e-5 c -0.00784,-0.00405 -0.017875,-0.015513 -0.028202,-0.027237 -0.00673,-0.00765 -0.013611,-0.015484 -0.017947,-0.019243 L 5.735179,5.9064629 C 5.719955,5.8932409 5.719811,5.8556189 5.720848,5.8364189 c -0.00771,-0.00586 -0.016492,-0.011667 -0.019099,-0.00988 -0.002,0.00255 -0.027654,0.071945 -0.027712,0.072118 L 5.655745,5.9449639 5.635912,5.8991899 c -1.585e-4,-3.889e-4 -0.060077,-0.1329 -0.033373,-0.162096 8.64e-5,-7.21e-5 -0.00874,-0.016477 -0.014648,-0.027842 -0.00145,-0.00281 -0.00281,-0.00523 -0.00399,-0.00713 -6.049e-4,-9.795e-4 -5.905e-4,-0.00114 -7.057e-4,-0.0013 l -4.33e-5,1.44e-5 -1.44e-5,-1.44e-5 v -8.65e-5 c -0.00815,-0.00853 -0.022152,-0.062496 -0.031572,-0.09885 -0.00379,-0.014619 -0.00681,-0.026243 -0.0075,-0.028432 l -2.88e-5,-4.32e-5 h -1.44e-5 l -1.44e-5,-5.76e-5 -1.009e-4,-1.584e-4 -4.32e-5,-1.008e-4 4.32e-5,-4.32e-5 c -0.00422,-0.013683 -0.00158,-0.034899 9.507e-4,-0.055583 8.498e-4,-0.00668 0.00167,-0.013323 0.00219,-0.019128 l -8.64e-5,-2.89e-5 2.88e-5,-1.584e-4 h -2.88e-5 c -4.32e-5,5.76e-5 -4.32e-5,1.008e-4 -7.21e-5,2.88e-5 -0.00219,-0.00622 -0.00966,-0.014187 -0.017428,-0.020827 -0.00707,-0.00605 -0.012214,-0.010183 -0.012589,-0.010212 h -5.76e-5 c -4.609e-4,-4.32e-5 -4.033e-4,-1.152e-4 1.44e-5,-2.16e-4 v -1.441e-4 c -0.020971,-8.93e-4 -0.067465,-0.017169 -0.067624,-0.017198 l -0.028418,-0.00913 0.017673,-0.024313 c 4.32e-5,-5.76e-5 0.01737,-0.024832 0.03343,-0.039192 0.00395,-0.0035 0.00438,-0.00644 0.00484,-0.00975 5.617e-4,-0.00396 0.00118,-0.00814 0.00302,-0.013942 v -7.2e-5 c 0.00256,-0.00789 0.0052,-0.014634 0.00949,-0.021288 0.00454,-0.00707 0.010356,-0.013193 0.018868,-0.019056 v 2.88e-5 c 0.00896,-0.00648 0.067408,-0.081941 0.071326,-0.086996 l -4.32e-5,-4.32e-5 c 8.64e-5,-1.009e-4 0.025307,-0.03441 0.032537,-0.047546 0.00124,-0.00226 -0.00771,-0.023809 -0.013971,-0.038846 l -4.32e-5,1.44e-5 c -0.00217,-0.00526 -0.00412,-0.00994 -0.00544,-0.013568 l -1.728e-4,-4.177e-4 -1.44e-5,-1.009e-4 1.44e-5,-1.44e-5 c -0.00972,-0.027294 2.016e-4,-0.034554 0.011206,-0.041784 0.00266,-0.00596 0.00955,-0.024687 0.014706,-0.038889 l -0.103143,-0.058723 c -0.014504,0.00108 -0.051017,0.0038 -0.057758,0.0038 l -0.00115,-1.008e-4 -2.881e-4,-2.88e-5 -8.93e-4,-7.2e-5 C 5.4410238,4.988074 5.4327128,4.975021 5.4291118,4.957679 5.4270918,4.947989 5.4260018,4.935584 5.4260018,4.924638 h -8.64e-5 c 0,-0.00444 2.16e-4,-0.00897 6.769e-4,-0.013237 0.00184,-0.017212 0.00184,-0.035461 0.00184,-0.045601 0,-0.0089 0.00376,-0.01665 0.00795,-0.025292 0.0029,-0.00593 0.00691,-0.011825 0.00661,-0.012401 -0.00866,-0.016722 -0.00377,-0.030276 0.00441,-0.040185 -0.025047,-0.00907 -0.066731,0.00157 -0.133231,0.080515 l -0.00133,0.00144 c -1.584e-4,1.873e-4 -0.036297,0.037535 -0.092801,0.014086 -0.021922,0.011825 -0.00876,0.013568 -0.130308,0.013568 l -0.064988,0.00277 0.030593,0.057484 h -0.042994 c -0.028519,0 -0.020712,0.02234 -0.051622,0.043052 l 6.194e-4,0.044377 -0.043614,0.015873 v 0.086089 c 0,0.028792 -0.018609,0.02643 -0.046278,0.025595 l -0.031227,0.177925 4.32e-5,0.00311 v 0.086075 c 0,0.029916 -0.017183,0.013136 -0.017183,0.043052 v 0.0086 c 0,0.023823 0.00664,0.020698 0.025811,0.02584 v 0.034438 h -0.03441 l 0.00442,0.030665 0.021591,0.029613 -0.00449,0.065046 0.030953,0.038255 c -0.0087,0.13748 0.019214,0.565132 -0.131172,0.657544 l -0.05034,0.108573 -0.01858,0.00125 -0.00625,0.021807 -0.00246,0.00864 -0.00756,0.00426 -0.012877,0.00727 -0.067955,0.156075 -0.00474,-0.018508 -0.020655,0.00419 L 4.5009419,6.723845 4.4960319,6.7043 4.4187869,6.71395 V 6.731176 C 4.3601219,6.729846 4.3919389,6.71395 4.3585659,6.71395 h -0.00858 c -0.029196,0 -0.086046,0.06892 -0.090223,0.12577 l -0.020222,0.035346 -2.88e-5,0.00242 h 0.024428 c 0.028317,0 0.085988,-0.021619 0.09463,-0.043037 0.092311,0 0.227286,-0.121939 0.266664,-0.180763 0,-0.045241 -0.00949,-0.042245 0.022066,-0.04985 l 0.046494,0.097137 0.00887,-0.00428 c 0,0.058247 0.025163,0.080558 0.040531,0.123005 0.023794,0.065593 0.072795,0.00786 0.097079,0.075013 l 0.034165,0.00354 0.146497,0.00508 c 0.059155,0.123351 0.057614,0.078988 0.156378,0.144826 0.042476,0.028288 0.026617,0.028288 0.088797,0.057484 0.047286,0.022181 0.076266,0.012012 0.116106,0.038702 0.101846,0 0.181022,0.038284 0.270078,0.065492 0.073558,0.022469 0.033704,0.036181 0.125626,0.020582 0.088869,-0.015023 0.06578,-0.0084 0.123768,0.03114 0.082877,0.056461 0.10755,0.09234 0.172207,0.163392 0.033877,0.03719 0.058233,0.145791 0.106628,0.186913 L 6.1360611,7.118358 h 0.04262 l 0.054704,0.599945 c 0.041899,0.095235 0.121075,0.207164 0.121536,0.293916 l 0.020107,0.012085 0.039264,0.11913 0.026013,0.0081 v 0.06886 h 0.017212 v 0.04304 c 0,0.0034 0.00387,0.01049 0.00955,0.01959 0.359595,-0.01959 0.647735,-0.3197994 0.647735,-0.6840464 v -3.30071 z m -2.35478,1.26878 0.074941,-0.427089 -0.020467,-0.130538 c -0.044002,-0.017788 -0.034424,-0.196981 -0.034424,-0.258253 l -0.091634,-0.00187 -0.020352,-0.031241 -0.111684,-0.00994 h -0.077404 c -0.00268,0.010082 -0.00858,0.023449 -0.00858,0.025825 0,0.019689 0.00289,0.01001 0.00858,0.034424 l -0.038673,0.00183 -0.021533,0.049807 -0.02777,0.00108 c 0.00704,0.017169 0.007,0.025134 0.012344,0.035778 0.00602,0.012041 0.0086,0.015484 0.00946,0.020669 8.354e-4,0.00511 0.010327,0.010298 0.012041,0.015484 0.0017,0.00514 0.0017,0.00686 0.00602,0.011163 0.00431,0.00432 0.00858,0.0086 0.00858,0.0086 0,0 -0.00171,0.00259 0.00173,0.01207 0.00346,0.00945 0.011177,0.017183 0.011177,0.017183 0,0 -0.00256,0.00259 0.00863,-0.00946 0.011191,-0.012041 0.018047,-0.02234 0.025825,-0.018926 0.00771,0.00346 0.0017,0.00346 0.018912,0.017226 0.017212,0.013755 0.022397,0.017183 0.032696,0.017183 0.010327,0 0.015484,0 0.022369,-8.354e-4 0.00688,-8.786e-4 0.013784,-0.01292 0.024976,-0.00603 0.011177,0.00687 -0.00431,0.00516 0.018076,0.00773 0.02234,0.00261 0.02234,0.00605 0.02751,0.00261 0.00519,-0.00347 0.024097,-0.016377 0.024961,-0.012056 8.786e-4,0.00431 0.010313,0.012905 -0.00431,0.023218 -0.014648,0.010327 -0.082618,0.014648 -0.082618,0.014648 l -0.036124,-0.00349 c 0,0 -0.012891,-8.354e-4 -0.013755,0.00606 -8.786e-4,0.00688 -0.00346,0.019805 -0.00346,0.019805 0,0 0.012905,0.016333 -0.00173,0.00514 -0.014605,-0.011177 -0.023218,-0.023233 -0.023218,-0.023233 0,0 -0.018926,-0.00346 -0.021519,0.0017 -0.00258,0.00517 -0.00599,0.01207 -0.00776,0.018955 -0.0017,0.0069 0.00259,0.01377 -0.00688,0.010298 -0.00943,-0.0034 -0.024068,-0.02751 -0.030953,-0.025782 -0.0069,0.0017 0.021519,0.025782 -0.01292,0.00344 -0.034439,-0.022354 -0.01413,0.074365 -0.01413,0.074365 0,0 -0.040949,-0.119102 -0.049519,-0.134629 -0.00861,-0.015469 -0.00948,-0.021475 -0.019819,-0.042144 -0.00616,-0.012358 -0.00864,-0.028663 -0.00838,-0.042015 -0.0023,-0.00412 -0.00367,-0.00955 -0.00367,-0.017183 v -0.017212 c -0.018105,-0.03513 0.135046,-0.215086 0.180806,-0.221812 l 0.249294,-0.010644 h 0.043023 v -0.025825 c 0,-0.019272 -0.00683,-0.018868 -0.017198,-0.03441 l 0.00122,-0.035476 -0.018465,-0.024817 c 0,-0.157328 -0.011508,-0.432937 -0.110229,-0.47367 l -0.010183,-0.085873 h -0.068805 c -0.00287,0.026185 -0.016953,0.043052 -0.042994,0.043052 h -0.00864 c -0.093176,0 -0.119678,-0.074393 -0.163407,-0.086089 -0.02198,-0.030017 -0.101544,-0.119505 -0.146238,-0.120513 -0.031515,-0.059587 -0.237786,-0.154937 -0.335498,-0.154937 h -0.215071 c -0.071052,0 -0.12253,0.014576 -0.184291,0.00321 -0.047747,-0.00881 -0.102725,0.023535 -0.166575,0.033041 -0.107925,0.016103 -0.245693,0.135896 -0.268479,0.135896 l -0.038587,0.00265 -0.046076,0.066371 c -0.01148,0.119476 -0.035778,0.17238 -0.035778,0.301132 l 0.023679,3.745e-4 0.010745,0.068531 c -0.019171,0.00511 -0.02584,0.002 -0.02584,0.025811 0,0.019819 0.00603,0.025825 0.02584,0.025825 l 0.028245,0.00271 c 0.022685,0.051996 0.074955,0.134629 0.074955,0.195296 0,0.023233 -0.0041,0.023722 -0.00822,0.041957 l 0.032292,0.010198 0.01894,0.076957 0.024803,-3.168e-4 0.00962,-0.034093 c 0.075892,0.020266 0.06483,0.013525 0.060221,0.068863 0.021792,0.00582 0.043023,0.016607 0.043023,0.043037 0,0.029887 -0.017227,0.013122 -0.017227,0.043037 0,0.031198 0.00723,0.048064 0.017327,0.068906 l -0.034525,0.077476 c 0.019171,0.00508 0.025797,0.00197 0.025797,0.025782 0,0.028634 -0.015426,0.025235 -0.042994,0.02584 v 0.025825 h 0.025811 v 0.025811 c 0.037045,0.00308 0.074105,0.071945 0.076972,0.110172 l -0.042562,0.010342 c -0.061718,-0.032653 -0.026905,-0.086075 -0.103244,-0.086075 h -0.03441 c -0.033402,0 -0.025811,0.028504 -0.028173,0.059068 l -0.023449,0.061459 c 0.049015,0.017759 0.109523,0.122213 0.139612,0.170205 0.025667,0.04092 0.013193,0.080616 0.029297,0.125655 0.01158,0.032393 0.034885,0.066861 0.045558,0.109322 0.011998,0.047805 0.033819,0.059961 0.064023,0.090914 0.019416,0.019934 0.060869,0.082416 0.067293,0.087616 0.015685,0.012733 0.080731,0.041583 0.101659,0.053221 0.055856,0.031054 0.011278,0.075935 0.085887,0.077577 0.00216,0.095797 0.077433,-0.011206 0.075992,0.216555 l 0.02728,0.033085 v 0.043037 c 0.010385,0.015541 0.017198,0.015167 0.017198,0.034439 0,0.029916 -0.017198,0.013165 -0.017198,0.043037 v 0.025868 h 0.017198 v 0.068848 c 0,0.028173 0.092643,0.106686 0.106513,0.13954 l 0.065521,0.041237 c 0.05505,0 0.083021,0.019128 0.121291,0.033589 0.046062,0.017371 0.088581,8.354e-4 0.14376,0.00145 l 0.010198,0.025235 c 0.063548,0 0.182577,0.025091 0.197888,-0.017226 h 0.051593 c 0.00625,0 0.097108,-0.037708 0.103229,-0.043052 l 0.025782,-0.02584 c 0.053826,-0.012517 0.120456,-0.14075 0.119231,-0.216224 l 0.01207,-0.025523 0.032148,-0.326395 -0.00858,-0.10333 c -0.00717,-0.062035 0.042994,-0.08233 0.042994,-0.14631 0.011796,-0.00426 0.022368,-0.021288 0.031573,-0.044983 z m -0.254278,-2.13849 0.244282,-0.093781 v -0.181771 l -0.00333,-0.0018 0.00333,-0.01377 v -0.01907 h 0.00458 l 0.075891,-0.315305 h -2.51162 c -0.376807,0 -0.685126,0.308305 -0.685126,0.685141 v 4.00162 c 0.05105,-0.021591 0.103071,-0.041424 0.150631,-0.089373 0.07153,-0.072089 0.301665,-0.383303 0.389698,-0.38506 l 0.0083,-0.025148 0.1470435,-0.025436 0.025091,-0.016218 0.068531,-0.010875 c 0.00315,-0.037895 0.255675,-0.298049 0.258037,-0.404606 0.034237,-0.00912 0.163464,-0.27509 0.163464,-0.335714 h 0.017169 v -0.034453 c 0,-0.040358 0.08606,-0.145618 0.08606,-0.189376 0,-0.023982 -0.041957,-0.064902 -0.043023,-0.1119 l 0.00945,0.00459 0.016362,-0.047632 h -0.086017 c -0.02028,0 -0.099455,-0.034237 -0.103244,-0.068891 -0.036109,-0.003 -0.120441,-0.121133 -0.120441,-0.129126 v -0.034424 l -0.00667,0.00668 -0.034424,-0.034424 0.00671,-0.00668 h -0.025811 c -0.020683,0 -0.025292,-0.013971 -0.043008,-0.02584 l 1.728e-4,-0.05214 -0.025984,-0.00812 v -0.051636 c 0,-0.032552 -0.060163,-0.047718 -0.089863,-0.082215 -0.021663,-0.025192 -0.02365,-0.019517 -0.046696,-0.039436 -0.03307,-0.028619 -0.00595,-0.024284 -0.038414,-0.047603 -0.052198,-0.037492 -0.048395,-0.021533 -0.093262,-0.078815 -0.03588,-0.045716 -0.06726,-0.046753 -0.06726,-0.113513 v -0.034424 c 0,-5.905e-4 0.02202,-0.0612 0.02583,-0.07749 h -0.02583 c -0.0207,0 -0.05162,-0.03091 -0.05162,-0.051636 v -0.00863 c 0,-0.039811 0.08809,-0.11082 0.111842,-0.146324 l -0.0013,-0.044089 0.018436,-0.024774 c -0.04295,-0.067754 0.034424,-0.394826 0.03634,-0.480195 l 0.032508,-0.036311 v -0.068906 c 0.03392,-0.017932 0.09463,-0.130192 0.09463,-0.180777 0.039105,-0.0262 0.031759,-0.034971 0.056677,-0.055165 0.016953,-0.013741 0.056764,-0.028533 0.072507,-0.039321 0.103877,-0.071484 0.187662,-0.161678 0.245088,-0.262675 0.030881,-0.054373 0.059371,-0.044319 0.090208,-0.090482 h 0.043037 c 0.02836,-0.042346 0.072752,-0.021576 0.07906,-0.073486 l 0.158236,-0.064398 0.00356,0.00877 c 0.011264,-0.027899 0.072535,-0.03127 0.099988,-0.046307 0.040834,-0.022325 0.062237,-0.025163 0.102178,-0.044118 0.060768,-0.02885 0.169355,-0.038716 0.253759,-0.038716 0.041122,-0.027539 0.152604,-0.064599 0.213156,-0.079406 0.098923,-0.024169 0.151394,6.625e-4 0.249424,0.021087 0.15161,0.031601 0.106383,0.050297 0.192069,0.109106 0.041107,0.028216 0.161304,0.082027 0.162571,0.138618 0.093262,0.00206 -0.00724,0.040949 0.086017,0.043023 3.024e-4,0.00108 6.193e-4,0.00209 9.362e-4,0.00314 z m 0.285979,-0.251008 v 0.172337 0.015095 l -0.013683,0.00527 -0.244382,0.093795 c 0.02329,0.015383 0.056922,0.021634 0.091577,0.021634 l 0.017212,0.00861 0.0086,0.017226 c 0.056461,0 0.064729,0.039076 0.087515,0.075978 0.030233,0.048972 0.041021,0.056865 0.065968,0.096243 l 0.00508,0.160324 0.133894,0.115083 -0.050988,-0.00133 -0.043613,-0.015887 v 0.068877 c 0,0.040589 0.00582,0.111785 0.014562,0.163839 0.174468,-0.029124 0.317537,-0.064484 0.317969,-0.064585 l 0.046768,-0.011537 -0.023895,0.043412 c -0.01943,0.03536 2.449e-4,0.061488 0.02015,0.087961 0.019329,0.025667 0.038788,0.051579 0.038788,0.087846 0,0.01086 -9.506e-4,0.021173 -0.00298,0.030881 -0.00524,0.025264 -0.017342,0.045457 -0.037305,0.059472 -0.018696,0.013136 -0.043757,0.020194 -0.07605,0.020194 -0.01907,0 -0.040949,-0.00246 -0.065752,-0.00762 -0.01207,-0.00251 -0.021763,-0.00277 -0.029152,-9.795e-4 -0.0084,0.00203 -0.013928,0.00762 -0.016766,0.016261 -0.00415,0.012545 -0.00406,0.03065 -1.008e-4,0.05348 0.00459,0.026574 0.014288,0.058406 0.028605,0.094616 0.019891,0.017514 0.0385,0.029383 0.051823,0.029383 l 0.053624,0.00114 -0.027827,0.059083 c 0.076842,0.00174 0.031515,0.034453 0.09463,0.034453 h 0.025797 c -0.00282,0.034194 -0.00858,0.020727 -0.00858,0.043052 0,0.02715 0.015945,0.058636 0.022988,0.092801 0.00412,-0.0021 0.00673,-0.00429 0.00762,-0.00516 0.082042,-0.096978 0.138301,-0.111511 0.175318,-0.098346 l -5.041e-4,-0.015858 -2.161e-4,-0.00756 0.00438,-0.00609 0.00668,-0.00928 -0.00253,-0.015872 -0.00609,-0.037867 0.034266,0.014216 0.204975,0.085138 c 0.00461,-0.049245 0.015196,-0.144034 0.029052,-0.151236 h 8.64e-5 c 0.00578,-0.00298 0.01472,-0.00411 0.025984,-0.00547 0.016809,-0.00206 0.04128,-0.00506 0.045904,-0.010255 v -2.88e-5 c 0.021231,-0.025148 0.060077,-0.00684 0.081048,0.00301 0.00304,0.00144 0.00544,0.00259 0.00596,0.00282 h 4.32e-5 v 1.45e-5 h 4.32e-5 1.44e-5 v 0 c 0.00399,7.201e-4 0.0068,-0.00858 0.016895,-0.015412 0.011019,-0.00746 0.021576,-0.014605 0.029052,-0.017327 l 3.169e-4,-7.21e-5 2.16e-4,-5.76e-5 c 0.019675,-0.00686 0.04684,0.02234 0.06241,0.048006 0.00243,0.00403 0.00472,0.00812 0.00673,0.012012 0.00216,0.00418 0.00387,0.00798 0.00501,0.011091 l -0.019459,0.00763 0.019459,-0.00755 4.32e-5,1.441e-4 c 0.00215,0.00591 0.124445,0.029973 0.124805,0.030031 l 0.022455,0.00436 -0.00616,0.022628 c 0,0 -0.00758,0.00256 -0.0048,0.00416 l 1.44e-5,-4.32e-5 c 0.00622,0.00323 0.010442,0.00719 0.014951,0.011364 0.00464,0.00435 0.00992,0.00925 0.020021,0.00925 0.016045,0 0.04877,-0.02885 0.062712,-0.04115 h 7.21e-5 l 0.00421,-0.00369 8.64e-5,-7.2e-5 c 0.011033,-0.00961 0.033185,-0.020467 0.059515,-0.023694 0.00472,-5.762e-4 0.00995,-9.074e-4 0.015628,-9.363e-4 0.00563,-4.32e-5 0.011163,2.305e-4 0.016506,8.787e-4 l 2.88e-4,2.88e-5 c 0.013121,0.00161 0.023045,0.00354 0.031616,0.00523 0.011782,0.00232 0.020525,0.00402 0.033762,0.00308 -2.016e-4,-0.041943 0.00422,-0.088322 0.021274,-0.117863 v -8.64e-5 c 0.02365,-0.04092 0.058147,-0.052328 0.0979,-0.065449 0.024414,-0.00808 0.051204,-0.016924 0.076871,-0.034698 0.065334,-0.045227 0.314541,-0.013352 0.372745,-0.00516 l 0.141441,-0.196722 v -0.737871 c 0,-0.376836 -0.308305,-0.685141 -0.685141,-0.685141 h -0.349902 c 0.017515,0.039192 0.058809,0.09041 0.077649,0.112764 0.087789,-0.034899 0.14762,0.00834 0.192127,0.040517 0.021634,0.015599 0.037593,0.027165 0.044262,0.018508 0.053537,-0.069568 0.223425,-0.019113 0.223901,-0.018969 l 0.015152,0.00448 v 0.016406 c 0,0.00137 0,0.481635 -0.023492,0.554905 -0.01763,0.055007 -0.078873,0.122731 -0.138661,0.156046 -0.012041,0.0067 -0.024068,0.012099 -0.035749,0.015844 -0.0123,0.00395 -0.024443,0.00612 -0.036095,0.00612 v 1.008e-4 H 6.398761 c -0.040488,0 -0.068128,-0.02715 -0.095351,-0.053941 -0.022541,-0.022152 -0.04478,-0.044002 -0.069698,-0.039696 -0.021303,0.00369 -0.038327,0.013323 -0.053379,0.021864 -0.035288,0.019992 -0.062612,0.035461 -0.108846,-0.00294 -0.031716,-0.026344 -0.079435,-0.00648 -0.130005,0.014547 -0.021331,0.00886 -0.043138,0.017932 -0.064527,0.024284 l -1.296e-4,4.32e-5 c -0.065968,0.019574 -0.163608,-0.065219 -0.225572,-0.156594 -0.011667,-0.017212 -0.022181,-0.034741 -0.031054,-0.051867 -0.00894,-0.01727 -0.016247,-0.034251 -0.02136,-0.050225 l 0.019704,-0.00688 -0.019704,0.00681 -4.32e-5,-1.008e-4 -1.44e-5,1.44e-5 c -0.026358,-0.082128 -0.064758,-0.072046 -0.099542,-0.0629 l -0.00481,0.00125 h -7.2e-5 c -0.00503,0.00133 -0.00995,0.00164 -0.014663,0.00108 -0.013554,-0.00164 -0.024471,-0.00984 -0.032998,-0.023045 -0.00644,-0.00997 -0.011609,-0.023146 -0.015585,-0.038471 -0.01279,-0.049303 -0.014346,-0.126116 -0.0073,-0.184781 0.00644,-0.053437 -0.064945,-0.083857 -0.122458,-0.108342 -0.020006,-0.00853 -0.038587,-0.016406 -0.053235,-0.024788 0.00181,0.015844 0.0089,0.045356 0.016089,0.075315 v 7.21e-5 c 0.00628,0.026185 0.012617,0.052659 0.015599,0.074653 v 1.584e-4 l 2.88e-5,1.008e-4 h 1.44e-5 c 0.00364,0.027136 0.00279,0.041813 0.00205,0.054906 -7.058e-4,0.011768 -0.00128,0.021965 0.00324,0.042346 0.010039,0.04527 0.014677,0.04913 0.017183,0.051204 0.00603,0.00507 0.00982,0.00825 0.011307,0.021058 v 7.2e-5 c 0.00905,0.07991 -0.015325,0.143544 -0.068243,0.178516 -0.01027,0.00683 -0.021619,0.012488 -0.033934,0.016881 -0.011868,0.00425 -0.024961,0.00737 -0.039148,0.00923 l -1.585e-4,7.2e-5 -2.016e-4,4.32e-5 v 2.89e-5 c -0.037492,0.00484 -0.116956,-0.046883 -0.188166,-0.106931 -0.013208,-0.011148 -0.026358,-0.022772 -0.039076,-0.034453 -0.012776,-0.011724 -0.024774,-0.023276 -0.03562,-0.034237 l -4.753e-4,-4.754e-4 c -0.013871,-0.013986 -0.00998,-0.030434 -0.00615,-0.046768 h 2.88e-5 c 0.00108,-0.00412 0.00822,-0.00181 0.00516,-0.0051 -0.040258,-0.042317 -0.086377,-0.075186 -0.115904,-0.094256 z m 0.205464,1.33446 c -0.00112,-0.00511 -0.00209,-0.010082 -0.00292,-0.014922 -0.00524,-0.030276 -0.0049,-0.055669 0.00156,-0.075214 0.00775,-0.023463 0.023132,-0.038687 0.046739,-0.04442 0.013208,-0.0032 0.028778,-0.00308 0.046739,6.481e-4 0.022037,0.00455 0.041179,0.00678 0.057614,0.00678 0.02365,0 0.040978,-0.00446 0.05276,-0.012747 0.010486,-0.00736 0.016938,-0.018465 0.019891,-0.032681 0.00135,-0.0065 0.00199,-0.013741 0.00199,-0.021706 0,-0.021533 -0.014994,-0.041467 -0.029829,-0.0612 -0.021605,-0.028735 -0.042994,-0.057181 -0.037852,-0.095466 -0.052702,0.012128 -0.156248,0.034799 -0.276617,0.055107 l 2.017e-4,0.0037 6.625e-4,0.01207 c 0.010082,0.022786 0.02934,0.05093 0.038515,0.072608 0.017054,0.040157 -8.93e-4,0.078902 0.035519,0.093637 v 0.043037 c 0,0.00802 0.019128,0.038011 0.045039,0.070764 z m 1.44044,0.244238 v 8.64e-5 l 4.32e-5,-8.64e-5 z m -0.920406,0.710534 -3.025e-4,-1.44e-5 v 7.2e-5 z m -3.025e-4,-1.44e-5 -8.64e-5,-2.88e-5 v 1.44e-4 l 8.64e-5,-4.32e-5 z m 0.030751,0.031083 -2.016e-4,8.64e-5 0.020309,0.00181 z m 0,0 -5.761e-4,-4.32e-5 c 1.44e-5,-2.737e-4 0,-8.64e-5 -7.2e-5,8.64e-5 l 4.465e-4,4.32e-5 z m -6.625e-4,1.44e-4 -4.33e-5,1.153e-4 h 2.89e-5 z m 0.03814,-0.57507 -0.00187,1.297e-4 -8.93e-4,-7.922e-4 z m -0.711729,-2.11986 -0.078498,0.32615 c 0.027597,0.016578 0.089762,0.056908 0.142262,0.11213 l 7.2e-5,8.64e-5 c 0.013093,0.013827 0.00933,0.029757 0.00559,0.045745 v 8.65e-5 c -0.00101,0.00429 -0.00848,0.00212 -0.00526,0.00536 l 4.753e-4,4.753e-4 c 0.010745,0.010875 0.022268,0.021951 0.03415,0.032897 0.011969,0.011004 0.024687,0.02221 0.03778,0.033257 0.06385,0.053854 0.131618,0.10068 0.156896,0.09741 h 7.2e-5 l 2.736e-4,-2.88e-5 1.45e-5,5.76e-5 c 0.010846,-0.00144 0.021101,-0.00393 0.030679,-0.00735 0.0092,-0.0033 0.017601,-0.00749 0.025148,-0.012473 0.037737,-0.024947 0.055338,-0.071988 0.04962,-0.132367 -0.00678,-0.0067 -0.016953,-0.021835 -0.02813,-0.072175 -0.00586,-0.02643 -0.0051,-0.039509 -0.00422,-0.054575 6.337e-4,-0.011105 0.00135,-0.023564 -0.00173,-0.046393 v -1.728e-4 -1.008e-4 h -1.45e-5 c -0.00266,-0.01956 -0.00876,-0.045011 -0.014763,-0.070159 h -4.32e-5 c -0.011969,-0.049922 -0.023708,-0.098937 -0.010183,-0.120614 0.0105,-0.016823 0.026632,-0.020467 0.050686,-0.00546 l 1.585e-4,7.2e-5 1.584e-4,1.296e-4 v 0 c 0.012949,0.00802 0.031832,0.01606 0.052385,0.024803 0.070749,0.030132 0.158538,0.067538 0.148153,0.15367 -0.0065,0.054114 -0.00524,0.124215 0.00616,0.168289 0.00279,0.010803 0.00611,0.019589 0.00991,0.025422 0.0016,0.00249 0.00269,0.00399 0.0031,0.00419 v -2.88e-5 l 0.00483,-0.00125 c 0.052515,-0.013827 0.11046,-0.029052 0.149032,0.091217 l -0.019704,0.00686 0.019704,-0.00678 2.88e-5,8.64e-5 h 2.88e-5 v 7.21e-5 l -2.88e-5,-7.21e-5 h 2.88e-5 c 0.00432,0.013424 0.010673,0.02813 0.018609,0.043455 0.00802,0.015484 0.017673,0.031529 0.028461,0.047445 0.053552,0.078988 0.132972,0.153785 0.180114,0.139799 l 1.152e-4,-4.32e-5 c 0.020611,-0.00612 0.040819,-0.014533 0.060624,-0.022772 0.062122,-0.025825 0.120729,-0.050196 0.171213,-0.00828 0.024759,0.020583 0.041496,0.011119 0.063087,-0.00112 0.018004,-0.010183 0.038371,-0.021735 0.066558,-0.026618 0.045169,-0.00779 0.074797,0.02136 0.104871,0.050887 0.021245,0.020914 0.042778,0.042072 0.066861,0.042072 h 1.008e-4 v 8.64e-5 c 0.00724,0 0.015325,-0.00153 0.023895,-0.00426 0.0092,-0.00297 0.018768,-0.00726 0.028404,-0.012646 0.051665,-0.028764 0.104151,-0.085916 0.11877,-0.131589 0.019013,-0.059241 0.021115,-0.439462 0.021346,-0.524356 -0.037953,-0.00942 -0.135997,-0.029325 -0.165048,0.0084 -0.03091,0.040142 -0.060393,0.01884 -0.100291,-0.010025 -0.038644,-0.027899 -0.091346,-0.065996 -0.165409,-0.030492 l -0.013784,0.00663 -0.010255,-0.011623 c -2.736e-4,-3.313e-4 -0.073961,-0.083064 -0.096632,-0.153396 h -1.16643 z m 0.725355,0.611971 v 7.2e-5 l 1.44e-5,-1.44e-5 z m -0.956328,1.45663 c 0.02306,0.00555 0.016218,0.0086 0.03441,0.0086 0.01858,0 0.060206,-0.00902 0.060206,-0.025811 0,-0.078614 -0.030017,-0.1049 -0.111972,-0.095912 l -0.093219,0.01086 -0.018811,0.022584 -0.062323,0.016506 0.05407,0.020136 c 0,0.099873 0.096733,0.092095 0.11841,0.071124 0.009,-0.00876 0.0093,-0.021403 0.019229,-0.028087 z m -0.298568,3.4124197 -0.105361,0.594356 -0.319525,-0.594356 -0.343924,-0.6788747 -0.00788,0.00398 v -0.025811 c -0.02342,-0.017154 -0.068834,-0.091217 -0.068834,-0.137725 v -0.02584 c 0.053696,0.00449 0.023866,0.02584 0.060206,0.02584 h 0.051622 v 0.017198 h 0.034395 c 0.019329,0 0.018897,0.00681 0.03441,0.017226 l 0.154678,0.010788 0.043181,-0.00217 c -9.938e-4,0.044636 -0.023391,0.050599 -0.068834,0.051651 0.00205,0.024298 -2.161e-4,0.034424 0.025811,0.034424 h 0.051622 l -0.025782,0.060278 -0.055885,0.080889 c -0.00434,0.04429 -0.019848,0.104741 -0.064585,0.108472 0.00259,0.031111 0.010241,0.068891 0.043009,0.068891 h 0.043023 v -0.017227 h 0.077433 c 0.00451,-0.054286 0.189102,-0.208331 0.194604,-0.227055 0.013899,-0.047718 -0.00913,-0.049346 0.054416,-0.048856 0.048583,3.6e-4 0.058809,-0.00477 0.095365,-0.00786 0.065535,-0.00557 0.114723,-0.021432 0.120124,-0.086406 h 0.025797 v 0.198003 l -0.026603,0.3787231 -0.016377,5.8e-5 v 0.154966 z m 0.217131,-3.4523597 c 0,0 0.00562,-0.00166 0.0076,-3.168e-4 0.002,0.0013 0.00398,3.168e-4 0.00892,0.00364 0.00497,0.0033 0.00828,0.0033 0.00828,0.0033 0,0 0.00235,-0.00297 0.00235,0 0,0.003 -3.888e-4,0.00798 -0.003,0.010615 -0.00266,0.00265 -0.00629,0.00732 -0.00861,0.00894 -0.0023,0.00167 -0.00726,0.00167 -0.00892,0.00134 -0.00167,-3.601e-4 -0.00694,-6.769e-4 -0.0076,-0.00398 -6.625e-4,-0.0033 -6.625e-4,-0.010947 -6.625e-4,-0.010947 z m -0.856195,0.169067 c 0.069338,0.00867 0.099844,-0.04648 0.11589,-0.084217 l 0.073357,0.03258 h 0.017183 c 0.00514,0.019171 0.00205,0.025811 0.025825,0.025811 h 0.025811 l 0.00786,-0.00572 -0.104698,-0.112274 c 0.0105,-0.00591 0.0092,-0.00863 0.025797,-0.00863 l 0.021288,0.00497 c 0.094731,0.09934 0.187633,0.17961 0.234286,0.158941 l -0.038313,-0.106167 c -0.023333,-0.100176 -0.077678,-0.12469 -0.12191,-0.196491 -0.017529,-0.028475 -0.04478,-0.036642 -0.075704,-0.049663 l -0.113398,0.00369 c -0.089892,0.074149 -0.237397,0.011724 -0.323428,0.072449 -0.050181,0.035389 -0.080357,0.106254 -0.122544,0.109754 0.010615,0.039869 0.045572,0.023031 0.094616,0.034439 v -0.034438 c 0,-0.024284 0.019747,-0.033185 0.03536,-0.036253 l 0.196894,-0.032595 h 0.00863 c 0.024083,0 0.049072,0.021317 0.051579,0.051651 -7.489e-4,1.008e-4 -0.010903,0.00326 -0.026229,0.00817 0.00784,0.012157 9.507e-4,0.00696 0.00998,0.023478 0.00935,0.017198 0.0031,0.00468 0.017169,0.015628 0.014029,0.010903 0.0031,0.02185 0.00781,0.035893 0.00468,0.014029 0,0.00779 -0.015628,0.00935 -0.015599,0.00158 -0.021835,-0.0047 -0.035864,-0.020294 -0.014058,-0.015613 -0.00784,-0.00936 -0.015642,-0.031183 -0.0034,-0.00955 -0.0071,-0.015527 -0.010183,-0.019214 -0.054877,0.017817 -0.123984,0.040661 -0.131892,0.044406 -0.045155,0.021403 -0.148888,0.061301 -0.160814,0.105937 0.034683,0.00808 0.040157,0.012012 0.084145,0.019171 0.040618,0.0066 0.065463,0.03248 0.079334,0.03248 h 0.025811 c 0.04491,0 0.017154,-0.030996 0.017154,-0.034424 0,-0.030031 0.012372,-0.068863 0.043037,-0.068863 h 0.00861 c 0.015901,0 0.060854,0.04079 0.068819,0.051636 z m 0.300772,0.557022 c 0.016002,0.030766 0.051622,0.055035 0.074149,0.074998 0.040574,0.035937 0.041611,0.091116 0.098173,0.091116 0.039883,0 0.025868,-0.016089 0.077462,-0.017226 0.040776,0.088653 0.050772,0.018681 0.090684,0.047502 l 0.064138,-0.056087 v -0.043037 c 0.038255,-0.020266 0.04213,-0.00742 0.057815,-0.055035 0.024673,-0.074883 -0.019128,-0.022469 -0.040618,-0.022469 -0.019617,0 -0.050801,-0.06578 -0.146353,-0.061992 -0.069857,-0.013525 -0.179293,0.057297 -0.231823,0.00696 l -0.013885,-0.018782 c -0.00516,-0.00978 -0.0092,-0.021908 -0.011984,-0.036729 l 7.633e-4,-0.012977 0.018768,-0.041323 0.01498,-0.024471 -0.071268,0.056418 c 0,0 -0.026243,0.030074 -0.035648,0.037593 -0.00936,0.00752 -0.026272,0.020683 -0.026272,0.020683 0,0 -0.011206,0.031975 -0.011206,0.041381 0,0.00939 -0.00376,0.054502 -0.00376,0.054502 l 0.026229,-0.04321 c 0,0 0.030031,-0.031976 0.04128,-0.018811 0.00982,0.011436 0.016766,0.017226 0.028375,0.021 z m 0.102941,-0.216584 0.028101,-0.015037 0.026272,-0.011278 0.031875,-0.00939 c 0,0 0.013136,0.016895 0.016895,0.026329 0.00376,0.00938 0.00187,0.026301 0.00752,0.035706 0.00562,0.00941 0.020626,0.037622 0.020626,0.037622 l 0.015008,0.013165 -0.033776,-0.020698 c -0.037319,-0.020784 -0.07533,-0.034669 -0.1125192,-0.056418 z m -0.05021,0.714019 0.015037,0.012041 c 0,0 0.00449,0.00454 0.025523,0.00902 0.021015,0.00452 0.049562,0 0.049562,0 0,0 0.042044,-0.012027 0.057066,-0.012027 0.015023,0 0.058535,-0.003 0.058535,-0.003 0,0 0.049605,-0.013582 0.060105,-0.013582 0.010529,0 0.018033,-0.010529 0.031558,-0.00752 0.013482,0.00301 0.025508,0.00301 0.033013,0.00301 0.0075,0 0.015023,0.012056 0.015023,0.012056 0,0 0.012027,0.00749 0.019545,0.012041 0.00749,0.00452 0.019517,0.00454 0.026992,0.00602 0.0075,0.00151 0.018047,0.00752 0.018047,0.00752 0,0 -0.013525,0.02558 -0.024039,0.036153 -0.010515,0.010515 -0.022527,0.024068 -0.034525,0.036138 -0.012041,0.012027 -0.058579,0.030089 -0.070605,0.034611 -0.011998,0.00451 -0.033027,-0.0015 -0.049562,0.00602 -0.016506,0.00755 -0.064556,0.010558 -0.082589,0.022599 -0.018004,0.012041 -0.042058,0.012041 -0.063058,0.024082 -0.021058,0.012056 -0.022541,0.028591 -0.045068,0.024068 -0.022541,-0.00449 -0.031572,-0.00147 -0.042058,-0.019517 -0.0105,-0.018119 -0.025552,-0.042216 -0.043599,-0.066299 -0.017975,-0.024082 -0.011998,-0.019545 -0.028504,-0.037636 -0.016506,-0.018076 -0.030017,-0.045169 -0.030017,-0.045169 l -0.013539,-0.027136 -0.040517,-0.011998 -0.014274,-0.01099 c -0.00357,0.013266 -0.010284,0.022513 -0.026704,0.022513 l -0.018148,0.00105 c -0.012531,-0.01184 -0.025739,-0.024227 -0.03549,-0.036671 -0.022556,-0.028562 -0.016549,-0.078282 -0.016549,-0.078282 0.00367,-0.00923 0.044478,-0.00992 0.051564,-0.025235 0.122919,-0.037694 0.064037,0.036873 0.25085,-0.015815 h 0.025811 c 0.019286,0 0.018897,-0.00681 0.034655,-0.015037 l 0.103013,-0.010802 c 0.00197,0.024327 -2.305e-4,0.034424 0.025811,0.034424 h 0.025768 c 0.029124,0 0.08161,-0.025825 0.137639,-0.025825 0.011091,0 0.021619,6.626e-4 0.031299,0.0022 7.057e-4,-4.033e-4 0.00145,-8.21e-4 0.00213,-0.0013 0.00835,-0.00559 0.01256,0 0.026531,-0.00281 0.013957,-0.00278 0.037708,-0.012603 0.046076,-0.019589 0.00837,-0.007 0.018148,-0.019603 0.022354,-0.030809 0.00418,-0.011191 0.02234,-0.020986 0.02234,-0.020986 0,0 0.00978,0.00697 0.020928,0.00838 0.011206,0.00141 0.00979,0.00979 0.016794,0.012603 0.00696,0.00279 0,0.030809 0.00556,0.049015 0.00562,0.018192 0,0.021015 -0.00278,0.035 -0.00281,0.014 -0.00421,0.012603 -0.022325,0.019589 -0.018177,0.00701 -0.015368,0.00282 -0.022383,-0.00699 -0.00696,-0.00981 -0.00696,-0.00281 -0.013986,-0.015412 -0.00694,-0.012603 -0.018134,-0.0014 -0.034871,-0.0014 -0.011566,0 -0.019128,-6.194e-4 -0.022729,-0.00104 -0.026315,0.00578 -0.255401,0.051233 -0.263985,0.051233 -0.047834,-7.2e-5 -0.10889,-0.00363 -0.155081,-2.88e-4 -0.0472,0.00343 -0.098116,0.025883 -0.137581,0.025883 h -0.068819 c -7.058e-4,0.00298 -0.00127,0.00598 -0.00174,0.009 0.012819,0.00477 0.027366,0.00945 0.041352,0.012228 0.037535,0.0075 0.124647,0.03464 0.124647,0.03464 z m -1.5302,-0.723482 c 0,0 0.010327,0.028936 0.016535,0.039264 0.00619,0.010342 -0.014447,0.037204 0.03307,0.064066 0.047546,0.026891 0.055799,0.022743 0.068186,0.033085 0.012401,0.010327 0.031039,0.024774 0.04962,0.033056 0.018595,0.00827 0.064052,0.020669 0.080601,0.020669 0.016535,0 0.043412,-0.00822 0.057902,-0.014461 0.014447,-0.00621 0.051636,-0.033085 0.051636,-0.033085 0,0 -0.00206,0.057887 -0.00206,0.076482 0,0.018609 0.00828,0.04756 -0.010342,0.07026 -0.018609,0.022772 -0.14052,0.02898 -0.150861,-0.00206 -0.010342,-0.030996 -0.01243,-0.022729 -0.047546,-0.064066 -0.03513,-0.041295 -0.062021,-0.080616 -0.072319,-0.084735 -0.010356,-0.00413 -0.024817,-0.00413 -0.043397,-0.020683 -0.018609,-0.016535 -0.024817,0.01449 -0.022757,-0.016535 0.00206,-0.030982 -0.00827,-0.101256 -0.00827,-0.1012559 z m 0.602638,1.06136 c -0.076439,-0.079334 -0.157127,-0.189117 -0.157127,-0.307671 v -0.03441 c 0,-0.016607 0.00269,-0.015311 0.00856,-0.02584 0.096704,-0.01714 0.01001,0.219983 0.576381,0.525133 v 0.034439 h 0.043008 c 0.00197,0 0.273664,0.14232 0.29249,0.154952 v 0.146338 l 0.027266,0.033113 -0.044478,0.00134 -0.010226,-0.02522 -0.041395,-6.193e-4 c -0.09826,0 -0.67768,-0.484098 -0.6944742,-0.5015544 z m -0.459267,-1.97924 c 0,0 0.023247,0.116207 0.027885,0.144077 0.00464,0.027885 0.027914,0.144092 0.041856,0.185905 0.013928,0.041856 0.00462,0.055813 0.04648,0.120888 0.041813,0.065074 0.037175,0.060408 0.055784,0.10225 0.018552,0.041856 0.046451,0.09296 0.046451,0.09296 l 0.055784,0.102264 0.027899,0.018609 -0.153411,-0.013957 c 0,0 -0.023218,0.041828 -0.041813,0.065075 -0.018609,0.023247 -0.037175,0.055784 -0.074394,0.069727 -0.037175,0.013942 -0.111525,0.013942 -0.111525,0.013942 l -0.018609,-0.037175 c 0,0 0.046509,0.00929 0.074379,-0.023247 0.027885,-0.032552 0.088307,-0.03719 0.088307,-0.079031 0,-0.041842 0,-0.074394 0,-0.074394 l -0.013914,-0.051103 -0.102264,0.013928 -0.102293,-0.055741 c 0,0 -0.05577,-0.00932 -0.092945,-0.027914 -0.037204,-0.018624 -0.079017,-0.055784 -0.079017,-0.055784 0,0 -0.018609,-0.041828 0.013928,-0.027871 0.032523,0.013942 0.079031,0.032537 0.079031,0.032537 0,0 0,0.023233 0.051132,0.037175 0.051132,0.013943 0.041828,0.013943 0.102264,0.01858 0.060422,0.00467 0.079003,0.027899 0.088293,0.00467 0.0093,-0.023247 0.023233,-0.0093 0.013957,-0.03719 -0.0093,-0.027899 -0.032537,-0.069727 -0.037175,-0.097597 -0.00465,-0.027914 0,-0.065089 0,-0.065089 0,0 0.037175,0.102279 0.01858,-0.023218 -0.01858,-0.125526 -0.032537,-0.148729 -0.037175,-0.195252 -0.00465,-0.04648 -0.00932,-0.209166 -0.055799,-0.130149 -0.046465,0.079031 -0.060408,0.074365 -0.078988,0.106916 -0.018638,0.032537 -0.046509,0.060422 -0.065089,0.088322 -0.018609,0.027871 0.01858,0.03719 -0.046509,0.055756 -0.06506,0.018595 -0.097597,0.023247 -0.097597,0.023247 0,0 0.0093,-0.04648 0.032537,-0.069727 0.023276,-0.023233 0.083669,-0.102235 0.116207,-0.130149 0.032537,-0.027885 0.037175,-0.032537 0.074365,-0.074365 0.055583,-0.062511 0.075964,-0.146324 0.139468,-0.134801 l 0.013928,0.106931 z m 0.813446,-0.943595 c 0.157458,-0.069799 0.266247,-0.081494 0.276257,-0.137135 0.170147,-0.110575 0.186711,-0.095581 0.305237,0.049317 0,0 0.047099,0.029138 0.056389,0.057023 0.0093,0.027885 0.00464,0.051132 0.01858,0.074379 0.013942,0.023247 0.018595,0.055784 0.041813,0.079017 0.02329,0.023218 0.059371,0.035432 0.059371,0.035432 0,0 0.102264,0.023247 0.03719,0.027885 -0.065089,0.00464 -0.069741,0.041842 -0.148729,-0.023233 -0.079017,-0.065089 -0.111569,-0.079031 -0.130163,-0.116207 -0.018609,-0.03719 -0.013928,-0.092974 -0.074365,-0.092974 -0.060451,0 -0.051146,-0.027885 -0.097626,-0.013942 -0.046509,0.013942 -0.079003,0.03719 -0.139439,0.046509 -0.060422,0.00928 -0.111554,0.00928 -0.111554,0.00928 l -0.092959,0.00465 z m 0.822736,0.232413 c 0,0 0.027871,-0.051132 0.069698,0.00465 0.041856,0.055741 0.037204,0.055741 0.065118,0.074365 0.027871,0.018609 0.12083,0.023247 0.12083,0.023247 0,0 -0.00467,0.051103 -0.041842,0.051103 -0.037175,0 -0.05577,0.046523 -0.083655,0 -0.027914,-0.04648 -0.079017,-0.083655 -0.079017,-0.083655 z m 1.77124,0.372515 -0.07471,0.00524 -0.042764,0.064311 -0.027654,-0.072507 -0.071686,-0.022297 0.057657,-0.050052 -0.00157,-0.078124 0.06326,0.041568 0.070735,-0.02594 -0.018552,0.075733 z m -0.010313,1.15347 -0.109509,-0.066803 -0.118641,0.047675 0.027467,-0.129026 -0.080083,-0.102423 0.126505,-0.012949 0.069151,-0.11105 0.0507,0.121061 0.122832,0.033834 -0.095178,0.087774 z m 0.010313,-1.95281 -0.07471,0.00523 -0.042764,0.064297 -0.027654,-0.072478 -0.071686,-0.02234 0.057657,-0.050009 -0.00157,-0.078138 0.06326,0.041554 0.070735,-0.025912 -0.018552,0.075733 z m 0.613469,2.73271 -0.07471,0.00524 -0.042764,0.064282 -0.027654,-0.072492 -0.071686,-0.022297 0.057657,-0.050066 -0.00157,-0.078095 0.063245,0.041554 0.070749,-0.025926 -0.018552,0.075733 z m -1.3478,-0.260241 -0.074682,0.00521 -0.042778,0.064297 -0.02764,-0.072478 -0.071686,-0.022325 0.057642,-0.050037 -0.00156,-0.07811 0.06326,0.041554 0.070735,-0.025941 -0.018552,0.075733 z m 0.409604,0.994137 v -0.467808 h -0.124345 v 0.474736 c 0,0.083885 -0.025667,0.138172 -0.110546,0.138172 -0.084879,0 -0.114493,-0.054286 -0.114493,-0.138172 v -0.474736 h -0.122357 v 0.466828 c 0,0.155946 0.079924,0.236057 0.23587,0.236057 0.154937,0 0.23587,-0.078124 0.23587,-0.235078 z m 0.5823,0.22308 v -0.690888 h -0.095739 l 0.0089,0.50432 c 0,0.027654 0.00395,0.064167 0.00395,0.064167 h -0.00494 c 0,0 -0.00987,-0.038486 -0.017774,-0.064167 l -0.164818,-0.50432 h -0.167771 v 0.690888 h 0.094731 l -0.0069,-0.504349 c 0,-0.027626 -0.00494,-0.066126 -0.00494,-0.066126 h 0.00494 c 0,0 0.00987,0.03948 0.018753,0.066126 l 0.164818,0.504349 z m 0.484602,-0.601068 v -0.08982 h -0.398729 v 0.08982 l 0.137207,-0.00199 v 0.603056 h 0.123336 v -0.603056 z"
         class="fil1" /><g
         transform="translate(-0.21200655,-0.70668788)"
         id="_239052648"><path
           style="fill:#ffffff"
           inkscape:connector-curvature="0"
           d="M 3.07911,9.86258 V 9.8055282 H 2.851522 V 10.244385 H 2.929905 V 10.045647 H 3.070338 V 9.988595 H 2.929905 V 9.86258 Z m 0.299691,0.37178 c -0.026344,-0.04827 -0.02571,-0.0558 -0.02571,-0.09905 v -0.09845 c 0,-0.086521 -0.042634,-0.1234953 -0.133548,-0.1234953 -0.04828,0 -0.085887,0.012531 -0.085887,0.012531 v 0.05142 c 0,0 0.038241,-0.011912 0.076482,-0.011912 0.052039,0 0.072737,0.017543 0.072737,0.068315 -0.074005,0.01569 -0.176182,0.01944 -0.176182,0.12227 0,0.0627 0.043887,0.09603 0.100305,0.09603 0.055179,0 0.078369,-0.03271 0.088422,-0.04713 l 0.036354,0.04965 z M 3.283494,10.124016 c 0,0.04076 -0.020064,0.07147 -0.060811,0.07147 -0.02571,0 -0.045155,-0.01567 -0.045155,-0.042 0,-0.0508 0.043887,-0.05393 0.105966,-0.06896 z m 0.337918,0.09969 -0.013165,-0.04641 c 0,0 -0.01943,0.02006 -0.053293,0.02006 -0.049519,0 -0.072103,-0.06018 -0.072103,-0.114089 0,-0.06333 0.020064,-0.1159909 0.080241,-0.1159909 0.025091,0 0.047661,0.00877 0.047661,0.00877 v -0.051406 c 0,0 -0.028836,-0.011278 -0.060811,-0.011278 -0.095927,0 -0.13918,0.066443 -0.13918,0.1655089 0,0.09155 0.039494,0.173143 0.131028,0.173143 0.055784,0 0.079622,-0.02832 0.079622,-0.02832 z m 0.280261,0.02078 V 9.920885 H 3.832076 v 0.233234 c -0.00817,0.01128 -0.030737,0.04073 -0.06457,0.04073 -0.03199,0 -0.040142,-0.02443 -0.040142,-0.0627 V 9.9208848 H 3.65778 v 0.2144232 c 0,0.06519 0.020064,0.116077 0.090914,0.116077 0.056418,0 0.084001,-0.03522 0.095927,-0.04713 l 0.029455,0.04023 z m 0.176154,-0.01013 C 4.051498,10.184186 4.052751,10.179176 4.052751,10.124012 V 9.7597544 H 3.983168 v 0.3642616 c 0,0.05705 0.00187,0.06582 0.028202,0.102826 l 0.020064,0.0277 z M 4.26716,9.9754264 V 9.9215144 H 4.218894 v -0.081509 l -0.069597,0.015037 v 0.066472 h -0.042 v 0.053912 l 0.042,-0.00127 v 0.1501696 c 0,0.05685 0.00189,0.06561 0.02885,0.102509 l 0.01943,0.0277 0.046408,-0.02018 C 4.217641,10.184305 4.218894,10.179295 4.218894,10.124327 V 9.9741624 Z m 0.292792,0.2589296 c -0.026329,-0.04827 -0.025696,-0.0558 -0.025696,-0.09905 v -0.09845 c 0,-0.086521 -0.042634,-0.1234949 -0.133548,-0.1234949 -0.04828,0 -0.085887,0.012531 -0.085887,0.012531 v 0.05142 c 0,0 0.038241,-0.011912 0.076482,-0.011912 0.052039,0 0.072723,0.017543 0.072723,0.068315 -0.07399,0.01568 -0.176182,0.01944 -0.176182,0.12227 0,0.0627 0.043902,0.09603 0.10032,0.09603 0.055179,0 0.078369,-0.03271 0.088408,-0.04713 l 0.036369,0.04965 0.047013,-0.02018 z M 4.464645,10.124012 c 0,0.04076 -0.020049,0.07147 -0.060797,0.07147 -0.025724,0 -0.04514,-0.01567 -0.04514,-0.042 0,-0.0508 0.043873,-0.05393 0.105937,-0.06896 z m 0.415668,0.110344 c -0.025696,-0.04827 -0.025062,-0.0558 -0.025062,-0.09905 V 9.7597543 H 4.785654 v 0.163623 c 0,0 -0.02885,-0.01001 -0.055799,-0.01001 -0.094674,0 -0.137941,0.077735 -0.137941,0.1749147 0,0.08901 0.037002,0.163738 0.12227,0.163738 0.062698,0 0.084015,-0.04651 0.084015,-0.04651 L 4.8333,10.25454 Z M 4.785654,10.102061 c 0,0.0508 -0.012545,0.09593 -0.059558,0.09593 -0.04828,0 -0.062698,-0.06208 -0.062698,-0.112217 0,-0.06772 0.026329,-0.121003 0.082762,-0.121003 0.021936,0 0.039494,0.00814 0.039494,0.00814 z m 0.565492,0.132295 C 5.32545,10.186086 5.32607,10.178556 5.32607,10.135306 V 9.7597543 H 5.256487 v 0.163623 c 0,0 -0.02885,-0.01001 -0.055799,-0.01001 -0.094673,0 -0.137927,0.077735 -0.137927,0.1749147 0,0.08901 0.036988,0.163738 0.122256,0.163738 0.062684,0 0.084001,-0.04651 0.084001,-0.04651 l 0.035115,0.04903 z M 5.256487,10.102061 c 0,0.0508 -0.01256,0.09593 -0.059558,0.09593 -0.04828,0 -0.062698,-0.06208 -0.062698,-0.112217 0,-0.06772 0.026329,-0.121003 0.082747,-0.121003 0.021936,0 0.039509,0.00814 0.039509,0.00814 z m 0.396223,-0.0063 c 0,-0.1034597 -0.018811,-0.1824477 -0.127902,-0.1824477 -0.093406,0 -0.134773,0.070836 -0.134773,0.1642557 0,0.111597 0.060177,0.174396 0.172394,0.174396 0.04262,0 0.072089,-0.01203 0.072089,-0.01203 v -0.05203 c 0,0 -0.027568,0.01193 -0.064556,0.01193 -0.07399,0 -0.109091,-0.04201 -0.109091,-0.104079 z M 5.581226,10.043721 H 5.461491 c 0,-0.02948 0.015052,-0.079003 0.06457,-0.079003 0.050153,0 0.055165,0.045774 0.055165,0.079003 z m -2.81245,0.620585 v -0.0017 c 0,-0.01096 -1.584e-4,-0.352393 -4.609e-4,-0.363066 -0.00956,-0.3326322 -0.168649,-0.5398252 -0.512487,-0.5398252 h -0.361784 v 1.5194302 h 0.370268 c 0.3567,0 0.504464,-0.261537 0.504464,-0.614823 z m -0.219119,0.0017 c 0,0.232687 -0.061128,0.458604 -0.293829,0.458604 H 2.108064 V 9.91428 h 0.139281 c 0.220156,0 0.295298,0.171285 0.301852,0.387336 2.881e-4,0.01061 4.609e-4,0.351918 4.609e-4,0.362706 v 0.0017 z m 1.03272,0.210621 c 0,-0.280232 -0.050974,-0.494267 -0.346517,-0.494267 -0.253082,0 -0.365184,0.19194 -0.365184,0.445007 0,0.302327 0.163075,0.472475 0.467088,0.472475 0.115501,0 0.195339,-0.03257 0.195339,-0.03257 v -0.140966 c 0,0 -0.074739,0.03226 -0.174944,0.03226 -0.200438,0 -0.295543,-0.113801 -0.295543,-0.281946 z M 3.3887222,10.7357 h -0.324408 c 0,-0.07984 0.040762,-0.214006 0.174944,-0.214006 0.135867,0 0.149464,0.12397 0.149464,0.214006 z m 0.742236,-0.193639 v -0.156248 c -0.040762,0 -0.14098,0.0017 -0.225888,0.127384 L 3.806551,10.379001 3.679167,10.43166 c 0.07134,0.129083 0.06964,0.152863 0.06964,0.268364 v 0.579463 h 0.185141 v -0.64062 c 0.067912,-0.09339 0.157948,-0.0985 0.1970098,-0.09681 z m 0.78981,0.334605 c 0,-0.280232 -0.050959,-0.494267 -0.346488,-0.494267 -0.253082,0 -0.365184,0.19194 -0.365184,0.445007 0,0.302327 0.163046,0.472475 0.467088,0.472475 0.115472,0 0.195324,-0.03257 0.195324,-0.03257 v -0.140966 c 0,0 -0.074739,0.03226 -0.174958,0.03226 -0.200423,0 -0.295529,-0.113801 -0.295529,-0.281946 h 0.519746 z M 4.7271142,10.7357 h -0.324379 c 0,-0.07984 0.040747,-0.214006 0.174929,-0.214006 0.135882,0 0.14945,0.12397 0.14945,0.214006 z m 0.864549,0.487454 -0.035648,-0.125684 c 0,0 -0.052673,0.05434 -0.144394,0.05434 -0.134196,0 -0.19531,-0.163046 -0.19531,-0.309111 0,-0.171544 0.054358,-0.314239 0.21739,-0.314239 0.067955,0 0.129083,0.02379 0.129083,0.02379 v -0.139281 c 0,0 -0.078138,-0.03058 -0.164746,-0.03058 -0.25988,0 -0.377066,0.180057 -0.377066,0.448406 0,0.247969 0.106988,0.469075 0.355,0.469075 0.151164,0 0.215691,-0.07673 0.2156914,-0.07673 z m 0.776213,0.05603 v -0.58086 c 0,-0.181728 -0.061142,-0.31251 -0.24457,-0.31251 -0.122314,0 -0.202137,0.06963 -0.229316,0.0968 V 9.7668854 h -0.186812 v 1.5122996 h 0.186812 v -0.631819 c 0.027179,-0.03056 0.091735,-0.110402 0.178343,-0.110402 0.093406,0 0.107003,0.07474 0.107003,0.181728 v 0.560494 h 0.18854 z m 0.900198,-0.43988 c 0,-0.273448 -0.103618,-0.456904 -0.375367,-0.456904 -0.266664,0 -0.375352,0.185127 -0.375352,0.456904 0,0.285346 0.105303,0.462248 0.375352,0.462248 0.266664,0 0.375367,-0.182016 0.375367,-0.462248 z m -0.193625,0 c 0,0.161332 -0.028879,0.324408 -0.180042,0.324408 -0.147779,0 -0.185141,-0.16476 -0.185141,-0.324408 0,-0.159676 0.033992,-0.317609 0.183442,-0.317609 0.152863,0 0.181742,0.156234 0.181742,0.317609 z m -4.87824,0.706285 h -0.067552 l -0.051506,0.192372 c -0.00467,0.01796 -0.00735,0.04673 -0.00735,0.04673 h -0.00202 c 0,0 -0.00334,-0.02876 -0.00869,-0.04673 L 2.0029301,11.545588 H 1.925339 l 0.102999,0.319899 -0.013381,0.0503 c -0.012704,0.04734 -0.016722,0.05672 -0.056159,0.08414 l 0.042778,0.04936 0.023434,-0.02071 c 0.032753,-0.02865 0.032091,-0.03535 0.046797,-0.08351 z m 0.503139,0.313 -0.022743,-0.05217 c 0,0 -0.019373,0.03075 -0.074898,0.03075 -0.085614,0 -0.105678,-0.09764 -0.105678,-0.18324 0,-0.09898 0.021418,-0.179913 0.118381,-0.179913 0.041467,0 0.070893,0.01472 0.070893,0.01472 v -0.06087 c 0,0 -0.036109,-0.01471 -0.083597,-0.01471 -0.139785,0 -0.191277,0.09764 -0.191277,0.240105 0,0.13241 0.048165,0.245549 0.181252,0.245549 0.07556,0 0.107665,-0.04023 0.107665,-0.04023 z m 0.150688,-0.363844 v -0.07288 h -0.074235 v 0.07288 z m 0,0.395287 v -0.344443 h -0.074235 v 0.344443 z m 0.376721,-0.158524 c 0,-0.110359 -0.020035,-0.194619 -0.136429,-0.194619 -0.099643,0 -0.143775,0.07558 -0.143775,0.175217 0,0.119044 0.064196,0.186049 0.183917,0.186049 0.045472,0 0.076914,-0.01282 0.076914,-0.01282 v -0.05551 c 0,0 -0.029441,0.0127 -0.068891,0.0127 -0.078931,0 -0.116379,-0.04481 -0.116379,-0.111021 z M 3.15052,11.675997 H 3.022791 c 0,-0.03143 0.01606,-0.08427 0.068891,-0.08427 0.053509,0 0.058838,0.04881 0.058838,0.08427 z m 0.4336,0.214121 v -0.228841 c 0,-0.06955 -0.022066,-0.123063 -0.097641,-0.123063 -0.059529,0 -0.089632,0.03746 -0.101674,0.05017 l -0.038774,-0.05283 -0.048828,0.02073 c 0.027424,0.05151 0.026747,0.06019 0.026747,0.105678 v 0.228164 h 0.073558 v -0.248228 c 0.00938,-0.01337 0.032782,-0.04415 0.069568,-0.04415 0.033445,0 0.042807,0.02676 0.042807,0.06755 v 0.224823 z m 0.317869,-0.02218 -0.014029,-0.04948 c 0,0 -0.020741,0.02139 -0.05685,0.02139 -0.052846,0 -0.0769,-0.0642 -0.0769,-0.121723 0,-0.06754 0.021389,-0.123725 0.085585,-0.123725 0.026761,0 0.050844,0.0094 0.050844,0.0094 v -0.05483 c 0,0 -0.030766,-0.01204 -0.064887,-0.01204 -0.102322,0 -0.14847,0.07089 -0.14847,0.176557 0,0.09766 0.042144,0.184709 0.139785,0.184709 0.059529,0 0.084922,-0.03022 0.084922,-0.03022 z m 0.151365,-0.373192 v -0.07288 H 3.979119 v 0.07288 z m 0,0.395287 V 11.54559 H 3.979119 v 0.344443 z m 0.380077,-0.01072 C 4.405344,11.827803 4.406036,11.819783 4.406036,11.773635 v -0.105001 c 0,-0.0923 -0.045486,-0.131748 -0.142478,-0.131748 -0.051492,0 -0.09162,0.01338 -0.09162,0.01338 v 0.05485 c 0,0 0.04079,-0.01273 0.081581,-0.01273 0.055511,0 0.077591,0.01874 0.077591,0.07291 -0.078931,0.01672 -0.187935,0.02074 -0.187935,0.130423 0,0.06687 0.046811,0.102437 0.107017,0.102437 0.058838,0 0.083597,-0.0349 0.094299,-0.05027 l 0.038788,0.05295 z M 4.331772,11.76161 c 0,0.04347 -0.021389,0.07624 -0.064858,0.07624 -0.027424,0 -0.048151,-0.01671 -0.048151,-0.04479 0,-0.05419 0.046797,-0.05754 0.113009,-0.07357 z m 0.380091,0.02943 c 0,-0.113038 -0.14245,-0.09899 -0.14245,-0.159172 0,-0.02876 0.030089,-0.04014 0.059515,-0.04014 0.035447,0 0.067538,0.0127 0.067538,0.0127 v -0.0555 c 0,0 -0.03477,-0.0127 -0.075575,-0.0127 -0.067538,0 -0.125727,0.03209 -0.125727,0.101645 0,0.11504 0.142464,0.09698 0.142464,0.160526 0,0.03009 -0.026747,0.04281 -0.05819,0.04281 -0.04213,0 -0.070216,-0.02342 -0.070216,-0.02342 l -0.018062,0.04749 c 0,0 0.034784,0.03221 0.094962,0.03221 0.070894,0 0.125742,-0.03555 0.1257418,-0.106442 z M 5.20564,11.76496 c 0,-0.145129 -0.183254,-0.133087 -0.183254,-0.225384 0,-0.04749 0.039465,-0.06555 0.086939,-0.06555 0.039465,0 0.078916,0.01538 0.078916,0.01538 v -0.06219 c 0,0 -0.044132,-0.01338 -0.092282,-0.01338 -0.088293,0 -0.158509,0.04413 -0.158509,0.132425 0,0.144466 0.183254,0.133764 0.183254,0.228726 0,0.04214 -0.036801,0.06287 -0.078916,0.06287 -0.053523,0 -0.091634,-0.03411 -0.091634,-0.03411 l -0.019387,0.05819 c 0,0 0.04079,0.03757 0.117705,0.03757 0.086276,0 0.15717,-0.04894 0.15717,-0.134542 z M 5.57235,11.7168 c 0,-0.10768 -0.04079,-0.179898 -0.147822,-0.179898 -0.105001,0 -0.147793,0.07291 -0.147793,0.179898 0,0.112375 0.041467,0.18203 0.147793,0.18203 0.105015,0 0.147822,-0.07167 0.147822,-0.18203 z m -0.076237,0 c 0,0.06355 -0.011379,0.127744 -0.070908,0.127744 -0.05819,0 -0.072881,-0.06487 -0.072881,-0.127744 0,-0.06286 0.013366,-0.125065 0.072204,-0.125065 0.060206,0 0.071585,0.06155 0.071585,0.125065 z m 0.375396,0.151149 -0.014043,-0.04948 c 0,0 -0.020741,0.02139 -0.05685,0.02139 -0.052832,0 -0.076914,-0.0642 -0.076914,-0.121723 0,-0.06754 0.021389,-0.123725 0.085599,-0.123725 0.026762,0 0.05083,0.0094 0.05083,0.0094 v -0.05483 c 0,0 -0.030766,-0.01204 -0.064873,-0.01204 -0.102336,0 -0.14847,0.07089 -0.14847,0.176557 0,0.09765 0.04213,0.184709 0.139785,0.184709 0.059515,0 0.084937,-0.03022 0.084937,-0.03022 z m 0.151336,-0.373192 v -0.07288 H 5.948624 v 0.07288 z m 0,0.395287 V 11.545601 H 5.948624 v 0.344443 z m 0.380091,-0.01072 c -0.028101,-0.05151 -0.02741,-0.05953 -0.02741,-0.105678 v -0.105001 c 0,-0.0923 -0.0455,-0.131748 -0.142478,-0.131748 -0.051492,0 -0.091606,0.01338 -0.091606,0.01338 v 0.05485 c 0,0 0.04079,-0.01273 0.081581,-0.01273 0.055511,0 0.077591,0.01874 0.077591,0.07291 -0.078916,0.01672 -0.187935,0.02074 -0.187935,0.130423 0,0.06687 0.046811,0.102437 0.107003,0.102437 0.058852,0 0.083597,-0.0349 0.094313,-0.05027 l 0.038788,0.05295 z M 6.3012768,11.76161 c 0,0.04347 -0.021403,0.07624 -0.064873,0.07624 -0.02741,0 -0.048151,-0.01671 -0.048151,-0.0448 0,-0.05418 0.046811,-0.05754 0.113023,-0.07357 z m 0.290459,0.117705 c -0.028072,-0.05349 -0.026747,-0.05885 -0.026747,-0.117705 v -0.388575 h -0.074235 v 0.388575 c 0,0.06085 0.002,0.07022 0.030089,0.109682 l 0.021403,0.02954 z m 0.357348,-0.147808 c 0,-0.110359 -0.020064,-0.194619 -0.136443,-0.194619 -0.099643,0 -0.143789,0.07557 -0.143789,0.175217 0,0.119044 0.06421,0.186049 0.183931,0.186049 0.045471,0 0.076914,-0.01282 0.076914,-0.01282 v -0.05551 c 0,0 -0.02944,0.0127 -0.068906,0.0127 -0.078916,0 -0.116351,-0.04481 -0.116351,-0.111021 z m -0.076237,-0.05551 h -0.127744 c 0,-0.03143 0.016045,-0.08427 0.068877,-0.08427 0.053509,0 0.058867,0.04881 0.058867,0.08427 z m 0.360013,0.11504 c 0,-0.113038 -0.14245,-0.09899 -0.14245,-0.159172 0,-0.02876 0.030089,-0.04014 0.059515,-0.04014 0.035447,0 0.067538,0.0127 0.067538,0.0127 v -0.0555 c 0,0 -0.03477,-0.0127 -0.075546,-0.0127 -0.067566,0 -0.125742,0.03209 -0.125742,0.101645 0,0.11504 0.14245,0.09698 0.14245,0.160526 0,0.03009 -0.026747,0.04281 -0.05819,0.04281 -0.04213,0 -0.070216,-0.02342 -0.070216,-0.02342 l -0.018062,0.04749 c 0,0 0.034784,0.03221 0.094962,0.03221 0.070908,0 0.125742,-0.03555 0.125742,-0.106441 z"
           class="fil1"
           id="_239052744" /><rect
           style="fill:#ffffff"
           height="0.047748402"
           width="5.3597598"
           y="12.2573"
           x="1.91879"
           class="fil1"
           id="_239052672" /></g></g></g></svg>